<svg width="160" height="57" viewBox="0 0 160 57" fill="none" xmlns="http://www.w3.org/2000/svg">
<path d="M23.5329 48.7669H33.9408L23.0954 15.5399H10.8454L0 48.7669H9.94738L11.6744 42.1584H21.806L23.5329 48.7669ZM16.6481 23.2077H16.8323L20.0329 35.2735H13.4474L16.6481 23.2077Z" fill="#031D0F"/>
<path d="M49.8327 22.9774C46.1715 22.9774 43.4774 24.8195 42.257 27.9281H42.0959V23.3458H32.632V56.8952H42.0728V44.3689H42.257C43.4314 47.3393 46.1945 49.1354 49.9478 49.1354C56.2571 49.1354 59.7801 44.438 59.7801 36.0564C59.7801 27.6518 56.234 22.9774 49.8327 22.9774ZM46.0794 41.859C43.5926 41.859 42.0498 39.6485 42.0268 36.0794C42.0498 32.5334 43.6156 30.2537 46.0794 30.2537C48.5432 30.2537 50.109 32.5334 50.109 36.0564C50.109 39.6024 48.5663 41.859 46.0794 41.859Z" fill="#031D0F"/>
<path d="M78.0188 22.9774C74.3576 22.9774 71.6635 24.8195 70.4431 27.9281H70.282V23.3458H60.8181V56.8952H70.2589V44.3689H70.4431C71.6175 47.3393 74.3806 49.1354 78.1339 49.1354C84.4432 49.1354 87.9662 44.438 87.9662 36.0564C87.9662 27.6518 84.4201 22.9774 78.0188 22.9774ZM74.2655 41.859C71.7787 41.859 70.2359 39.6485 70.2129 36.0794C70.2359 32.5334 71.8017 30.2537 74.2655 30.2537C76.7293 30.2537 78.2951 32.5334 78.2951 36.0564C78.2951 39.6024 76.7524 41.859 74.2655 41.859Z" fill="#031D0F"/>
<path d="M104.294 20.0991L109.29 12.5695H101.531L98.2608 20.0991H104.294ZM105.79 40.5235C105.238 42.0432 103.695 42.9413 101.784 42.9413C99.251 42.9413 97.4549 41.1452 97.4549 38.6584V38.0597H114.31V35.5038C114.31 27.7208 109.221 22.7011 101.346 22.7011C93.3562 22.7011 88.3595 27.882 88.3595 36.1945C88.3595 44.461 93.3102 49.4117 101.646 49.4117C108.623 49.4117 113.412 46.0038 114.195 40.5235H105.79ZM101.554 29.1945C103.764 29.1945 105.353 30.6682 105.514 32.9478H97.5931C97.7773 30.7603 99.4121 29.1945 101.554 29.1945Z" fill="#031D0F"/>
<path d="M117.582 17.7735V23.3458H114.22V30.1847H117.582V41.6748C117.582 46.6946 120.414 48.7669 127.598 48.7669C129.394 48.7669 130.592 48.6058 131.49 48.4215V41.8821C130.937 41.9742 130.592 41.9972 129.878 41.9972C127.944 41.9972 127.023 41.1682 127.023 39.5794V30.1847H131.49V23.3458H127.023V17.7735H117.582Z" fill="#031D0F"/>
<path d="M137.386 20.9281C139.896 20.9281 141.876 18.9248 141.876 16.53C141.876 14.1353 139.896 12.132 137.386 12.132C134.876 12.132 132.896 14.1353 132.896 16.53C132.896 18.9248 134.876 20.9281 137.386 20.9281ZM132.712 48.7669H142.153V23.3458H132.712V48.7669Z" fill="#031D0F"/>
<path d="M146.092 17.7735V23.3458H142.73V30.1847H146.092V41.6748C146.092 46.6946 148.924 48.7669 156.109 48.7669C157.905 48.7669 159.102 48.6058 160 48.4215V41.8821C159.447 41.9742 159.102 41.9972 158.388 41.9972C156.454 41.9972 155.533 41.1682 155.533 39.5794V30.1847H160V23.3458H155.533V17.7735H146.092Z" fill="#031D0F"/>
<path d="M27.2747 0V20.7669H36.1543C42.4433 20.7669 46.1563 16.8812 46.1563 10.2323C46.1563 3.58348 42.4577 0 36.1543 0H27.2747ZM33.3767 4.84993H35.2908C38.2122 4.84993 39.9392 6.73521 39.9392 10.2323C39.9392 14.0605 38.3418 15.917 35.2908 15.917H33.3767V4.84993Z" fill="#031D0F"/>
<path d="M54.39 21.1699C59.5853 21.1699 62.7514 18.1908 62.7514 12.8084C62.7514 7.55552 59.5133 4.47575 54.39 4.47575C49.2954 4.47575 46.0429 7.5843 46.0429 12.8084C46.0429 18.1764 49.209 21.1699 54.39 21.1699ZM54.39 16.9532C52.9076 16.9532 52.0298 15.4852 52.0298 12.8228C52.0298 10.2323 52.9508 8.69245 54.39 8.69245C55.8435 8.69245 56.7646 10.2323 56.7646 12.8228C56.7646 15.4852 55.8579 16.9532 54.39 16.9532Z" fill="#031D0F"/>
<path d="M62.8107 20.7669H68.7112V11.8874C68.7112 10.405 69.5603 9.32567 70.9563 9.32567C72.4386 9.32567 73.187 10.3043 73.187 11.9017V20.7669H79.0875V10.5921C79.0875 6.77838 77.1302 4.5621 73.5611 4.5621C71.1434 4.5621 69.4883 5.77098 68.6824 8.00166H68.5673V4.87871H62.8107V20.7669Z" fill="#031D0F"/>
<path d="M89.9548 15.6147C89.6094 16.5646 88.6451 17.1259 87.4506 17.1259C85.8676 17.1259 84.745 16.0033 84.745 14.449V14.0749H95.2796V12.4774C95.2796 7.61309 92.0991 4.47575 87.1772 4.47575C82.1834 4.47575 79.0604 7.71383 79.0604 12.9091C79.0604 18.0757 82.1546 21.1699 87.3643 21.1699C91.7249 21.1699 94.7183 19.0399 95.2076 15.6147H89.9548ZM87.3067 8.53414C88.6883 8.53414 89.6813 9.4552 89.7821 10.88H84.8314C84.9465 9.51276 85.9683 8.53414 87.3067 8.53414Z" fill="#031D0F"/>
</svg>
